<svg width="604" height="604" viewBox="0 0 604 604" fill="none" xmlns="http://www.w3.org/2000/svg">
<path d="M256.604 192.714C270.688 149.367 332.012 149.367 346.096 192.714V192.714C352.395 212.099 370.459 225.224 390.842 225.224V225.224C436.419 225.224 455.369 283.546 418.496 310.336V310.336C402.006 322.316 395.106 343.552 401.405 362.938V362.938C415.489 406.284 365.877 442.329 329.005 415.54V415.54C312.515 403.559 290.185 403.559 273.696 415.54V415.54C236.823 442.329 187.211 406.284 201.295 362.938V362.938C207.594 343.552 200.694 322.316 184.204 310.336V310.336C147.331 283.546 166.281 225.224 211.858 225.224V225.224C232.241 225.224 250.305 212.099 256.604 192.714V192.714Z" fill="#FCF466"/>
<path d="M211.858 235.224C236.573 235.224 258.477 219.309 266.115 195.804C277.205 161.671 325.495 161.671 336.585 195.804C344.223 219.309 366.127 235.224 390.842 235.224C426.732 235.224 441.654 281.15 412.619 302.245C392.624 316.772 384.257 342.522 391.894 366.028C402.985 400.161 363.918 428.545 334.882 407.449C314.888 392.922 287.812 392.922 267.818 407.449C238.782 428.545 199.715 400.161 210.806 366.028C218.443 342.522 210.076 316.772 190.081 302.245C161.046 281.15 175.968 235.224 211.858 235.224Z" stroke="#E6C545" stroke-opacity="0.15" stroke-width="20"/>
<path d="M349.043 301.441C349.043 328.613 327.716 350.641 301.407 350.641C275.098 350.641 253.77 328.613 253.77 301.441C253.77 274.269 275.098 252.241 301.407 252.241C327.716 252.241 349.043 274.269 349.043 301.441Z" fill="#9E510A"/>
<path d="M208.363 373.054C162.848 370.669 146.976 311.435 185.2 286.612V286.612C202.295 275.51 210.297 254.664 205.021 234.976V234.976C193.225 190.952 244.656 157.553 280.076 186.235V186.235C295.916 199.063 318.214 200.231 335.309 189.13V189.13C373.533 164.307 421.191 202.899 404.857 245.449V245.449C397.553 264.478 403.332 286.046 419.172 298.874V298.874C454.592 327.556 432.616 384.807 387.101 382.421V382.421C366.746 381.355 348.02 393.516 340.715 412.545V412.545C324.382 455.095 263.142 451.885 251.346 407.861V407.861C246.07 388.173 228.717 374.121 208.363 373.054V373.054Z" fill="#FCF466"/>
<path d="M265.835 403.979C258.877 378.014 235.992 359.482 209.148 358.075C178.144 356.45 167.332 316.101 193.37 299.192C215.914 284.551 226.468 257.059 219.51 231.094C211.475 201.105 246.508 178.354 270.636 197.893C291.526 214.809 320.934 216.351 343.478 201.71C369.516 184.801 401.979 211.089 390.853 240.074C381.22 265.169 388.842 293.614 409.732 310.531C433.86 330.069 418.89 369.067 387.886 367.442C361.042 366.035 336.345 382.074 326.711 407.169C315.585 436.154 273.87 433.967 265.835 403.979Z" stroke="#E6C545" stroke-opacity="0.15" stroke-width="30"/>
<path d="M208.363 373.054C162.848 370.669 146.976 311.435 185.2 286.612V286.612C202.295 275.51 210.297 254.664 205.021 234.976V234.976C193.225 190.952 244.656 157.553 280.076 186.235V186.235C295.916 199.063 318.214 200.231 335.309 189.13V189.13C373.533 164.307 421.191 202.899 404.857 245.449V245.449C397.553 264.478 403.332 286.046 419.172 298.874V298.874C454.592 327.556 432.616 384.807 387.101 382.421V382.421C366.746 381.355 348.02 393.516 340.715 412.545V412.545C324.382 455.095 263.142 451.885 251.346 407.861V407.861C246.07 388.173 228.717 374.121 208.363 373.054V373.054Z" fill="#FCF466"/>
<path d="M261.005 405.273C254.608 381.4 233.567 364.361 208.886 363.068C173.045 361.189 160.547 314.545 190.647 294.998C211.375 281.538 221.077 256.261 214.681 232.388C205.392 197.721 245.891 171.421 273.782 194.007C292.99 209.56 320.028 210.977 340.755 197.517C370.855 177.97 408.383 208.359 395.521 241.865C386.664 264.939 393.672 291.091 412.879 306.645C440.771 329.231 423.465 374.313 387.625 372.435C362.943 371.142 340.236 385.888 331.379 408.961C318.517 442.467 270.294 439.94 261.005 405.273Z" stroke="#E6C545" stroke-opacity="0.15" stroke-width="20"/>
<path d="M289.46 255.624C315.706 248.591 342.503 263.491 349.312 288.904C356.122 314.316 340.365 340.618 314.119 347.651C287.872 354.684 261.075 339.784 254.266 314.371C247.457 288.959 263.214 262.657 289.46 255.624Z" fill="#9E510A"/>
</svg>
