<svg width="2637" height="770" viewBox="0 0 2637 770" fill="none" xmlns="http://www.w3.org/2000/svg">
<path d="M268.21 547.067C264.471 546.658 260.782 548.316 258.597 551.388L236.806 582.024C232.287 588.379 236.198 597.142 243.931 597.988L281.357 602.081C285.321 602.515 289.206 600.625 291.319 597.236L310.59 566.324C314.567 559.944 310.576 551.7 303.116 550.884L268.21 547.067Z" fill="#9FCE79"/>
<g style="mix-blend-mode:screen">
<line y1="-3.07206" x2="55.4829" y2="-3.07206" transform="matrix(0.918042 -0.38886 0.430388 0.90626 232.634 595.161)" stroke="#7AAD51" stroke-width="6.14411"/>
</g>
<path d="M173.744 450.102C174.839 453.124 177.599 455.319 180.878 455.776L214.092 460.404C220.551 461.304 225.625 455.346 223.468 449.394L213.371 421.526C212.214 418.335 209.21 416.083 205.727 415.796L173.219 413.115C166.943 412.597 162.268 418.432 164.352 424.182L173.744 450.102Z" fill="#9FCE79"/>
<g style="mix-blend-mode:screen">
<line y1="-2.57791" x2="45.0653" y2="-2.57791" transform="matrix(-0.79224 -0.635556 0.658548 -0.732172 225.292 458.525)" stroke="#7AAD51" stroke-width="5.15582"/>
</g>
<path d="M335.487 310.552L319.272 367.996L230.332 487.139L252.715 755.485L210.185 754.432L205.756 480.951L335.487 310.552Z" fill="#91C16B"/>
<path d="M404.518 455.959L381.294 644.812L356.284 455.959V644.812V754.158H404.518V644.812V455.959Z" fill="#7AAD51"/>
<path d="M178.142 503.333L158.634 661.969L137.626 503.333V661.969V753.82H178.142V661.969V503.333Z" fill="#7AAD51"/>
<path d="M34.728 587.757L18.0071 693.151L-9.22513e-05 587.757V693.151V754.175H34.728V693.151V587.757Z" fill="#BBE19D"/>
<path d="M121.548 644.849L104.827 714.086L86.8202 644.849V714.086V754.175H121.548V714.086V644.849Z" fill="#7AAD51"/>
<path d="M455.323 644.242L438.602 713.479L420.595 644.242V713.479V753.567H455.323V713.479V644.242Z" fill="#7AAD51"/>
<path d="M96.4663 455.622L73.2428 644.474L48.2328 455.622V644.474V753.82H96.4663V644.474V455.622Z" fill="#9FCE79"/>
<path d="M371.72 503.333L352.212 661.969L331.204 503.333V661.969V753.82H371.72V661.969V503.333Z" fill="#9FCE79"/>
<path d="M477.141 502.022L496.649 660.658L517.657 502.022V660.658V752.509H477.141V660.658V502.022Z" fill="#7AAD51"/>
<path d="M620.555 586.446L637.276 691.84L655.283 586.446V691.84V752.864H620.555V691.84V586.446Z" fill="#BBE19D"/>
<path d="M533.735 643.539L550.456 712.775L568.463 643.539V712.775V752.864H533.735V712.775V643.539Z" fill="#7AAD51"/>
<path d="M558.817 454.311L582.04 643.163L607.05 454.311V643.163V752.51H558.817V643.163V454.311Z" fill="#9FCE79"/>
<path d="M1307.87 546.857C1304.13 546.448 1300.44 548.106 1298.25 551.179L1276.46 581.815C1271.94 588.169 1275.85 596.933 1283.59 597.778L1321.01 601.872C1324.98 602.305 1328.86 600.416 1330.98 597.026L1350.25 566.114C1354.22 559.735 1350.23 551.491 1342.77 550.675L1307.87 546.857Z" fill="#9FCE79"/>
<g style="mix-blend-mode:screen">
<line y1="-3.07206" x2="55.4829" y2="-3.07206" transform="matrix(0.918042 -0.38886 0.430388 0.90626 1272.29 594.95)" stroke="#7AAD51" stroke-width="6.14411"/>
</g>
<path d="M1213.4 449.892C1214.5 452.914 1217.26 455.109 1220.54 455.566L1253.75 460.194C1260.21 461.094 1265.28 455.136 1263.13 449.184L1253.03 421.316C1251.87 418.125 1248.87 415.873 1245.38 415.586L1212.88 412.905C1206.6 412.387 1201.93 418.222 1204.01 423.972L1213.4 449.892Z" fill="#9FCE79"/>
<g style="mix-blend-mode:screen">
<line y1="-2.57791" x2="45.0653" y2="-2.57791" transform="matrix(-0.79224 -0.635556 0.658548 -0.732172 1264.95 458.315)" stroke="#7AAD51" stroke-width="5.15582"/>
</g>
<path d="M1375.14 310.342L1358.93 367.786L1269.99 486.929L1292.37 755.275L1249.84 754.222L1245.41 480.741L1375.14 310.342Z" fill="#91C16B"/>
<path d="M1444.17 455.75L1420.95 644.602L1395.94 455.75V644.602V753.948H1444.17V644.602V455.75Z" fill="#7AAD51"/>
<path d="M1217.8 503.123L1198.29 661.759L1177.28 503.123V661.759V753.61H1217.8V661.759V503.123Z" fill="#7AAD51"/>
<path d="M1074.39 587.547L1057.66 692.941L1039.66 587.547V692.941V753.965H1074.39V692.941V587.547Z" fill="#BBE19D"/>
<path d="M1161.21 644.639L1144.48 713.876L1126.48 644.639V713.876V753.965H1161.21V713.876V644.639Z" fill="#7AAD51"/>
<path d="M1494.98 644.032L1478.26 713.269L1460.25 644.032V713.269V753.357H1494.98V713.269V644.032Z" fill="#7AAD51"/>
<path d="M1136.12 455.412L1112.9 644.264L1087.89 455.412V644.264V753.61H1136.12V644.264V455.412Z" fill="#9FCE79"/>
<path d="M1411.38 503.123L1391.87 661.759L1370.86 503.123V661.759V753.61H1411.38V661.759V503.123Z" fill="#9FCE79"/>
<path d="M2313.81 508.381L2333.32 667.017L2354.33 508.381V667.017V758.868H2313.81V667.017V508.381Z" fill="#7AAD51"/>
<path d="M2457.22 586.166L2473.94 691.559L2491.95 586.166V691.559V752.583H2457.22V691.559V586.166Z" fill="#BBE19D"/>
<path d="M2370.4 649.897L2387.12 719.134L2405.13 649.897V719.134V759.223H2370.4V719.134V649.897Z" fill="#7AAD51"/>
<path d="M2036.63 646.444L2053.35 715.681L2071.36 646.444V715.681V755.77H2036.63V715.681V646.444Z" fill="#7AAD51"/>
<path d="M2120.23 505.536L2139.74 664.171L2160.75 505.536V664.171V756.023H2120.23V664.171V505.536Z" fill="#9FCE79"/>
<path d="M1771.73 546.857C1767.99 546.448 1764.3 548.106 1762.12 551.179L1740.33 581.815C1735.81 588.169 1739.72 596.933 1747.45 597.778L1784.88 601.872C1788.84 602.305 1792.72 600.416 1794.84 597.026L1814.11 566.114C1818.09 559.735 1814.09 551.491 1806.63 550.675L1771.73 546.857Z" fill="#9FCE79"/>
<g style="mix-blend-mode:screen">
<line y1="-3.07206" x2="55.4829" y2="-3.07206" transform="matrix(0.918042 -0.38886 0.430388 0.90626 1736.15 594.951)" stroke="#7AAD51" stroke-width="6.14411"/>
</g>
<path d="M1677.26 449.892C1678.36 452.914 1681.12 455.109 1684.4 455.566L1717.61 460.194C1724.07 461.094 1729.14 455.136 1726.99 449.184L1716.89 421.316C1715.73 418.125 1712.73 415.873 1709.25 415.586L1676.74 412.905C1670.46 412.387 1665.79 418.222 1667.87 423.972L1677.26 449.892Z" fill="#9FCE79"/>
<g style="mix-blend-mode:screen">
<line y1="-2.57791" x2="45.0653" y2="-2.57791" transform="matrix(-0.79224 -0.635556 0.658548 -0.732172 1728.81 458.315)" stroke="#7AAD51" stroke-width="5.15582"/>
</g>
<path d="M1839.01 310.342L1822.79 367.786L1733.85 486.929L1756.23 755.275L1713.7 754.222L1709.28 480.741L1839.01 310.342Z" fill="#91C16B"/>
<path d="M1908.04 455.75L1884.81 644.602L1859.8 455.75V644.602V753.948H1908.04V644.602V455.75Z" fill="#7AAD51"/>
<path d="M1681.66 503.123L1662.15 661.759L1641.15 503.123V661.759V753.61H1681.66V661.759V503.123Z" fill="#7AAD51"/>
<path d="M1538.25 587.547L1521.53 692.941L1503.52 587.547V692.941V753.965H1538.25V692.941V587.547Z" fill="#BBE19D"/>
<path d="M1625.07 644.639L1608.35 713.876L1590.34 644.639V713.876V753.965H1625.07V713.876V644.639Z" fill="#7AAD51"/>
<path d="M1958.84 644.032L1942.12 713.269L1924.11 644.032V713.269V753.357H1958.84V713.269V644.032Z" fill="#7AAD51"/>
<path d="M1599.99 455.412L1576.76 644.264L1551.75 455.412V644.264V753.61H1599.99V644.264V455.412Z" fill="#9FCE79"/>
<path d="M1875.24 503.123L1855.73 661.759L1834.72 503.123V661.759V753.61H1875.24V661.759V503.123Z" fill="#9FCE79"/>
<path d="M825.516 546.857C829.255 546.448 832.943 548.106 835.129 551.179L856.919 581.815C861.439 588.169 857.528 596.933 849.794 597.778L812.369 601.872C808.405 602.305 804.52 600.416 802.407 597.026L783.136 566.114C779.159 559.735 783.15 551.491 790.61 550.675L825.516 546.857Z" fill="#9FCE79"/>
<g style="mix-blend-mode:screen">
<line y1="-3.07206" x2="55.4829" y2="-3.07206" transform="matrix(-0.918042 -0.38886 -0.430388 0.90626 861.09 594.951)" stroke="#7AAD51" stroke-width="6.14411"/>
</g>
<path d="M919.983 449.892C918.888 452.914 916.128 455.109 912.848 455.566L879.635 460.194C873.176 461.094 868.102 455.136 870.258 449.184L880.356 421.316C881.512 418.125 884.517 415.873 887.999 415.586L920.507 412.905C926.783 412.387 931.458 418.222 929.375 423.972L919.983 449.892Z" fill="#9FCE79"/>
<g style="mix-blend-mode:screen">
<line y1="-2.57791" x2="45.0653" y2="-2.57791" transform="matrix(0.79224 -0.635556 -0.658548 -0.732172 868.434 458.315)" stroke="#7AAD51" stroke-width="5.15582"/>
</g>
<path d="M758.24 310.342L774.455 367.786L863.395 486.929L841.012 755.275L883.542 754.222L887.971 480.741L758.24 310.342Z" fill="#91C16B"/>
<path d="M689.209 455.749L712.433 644.601L737.442 455.749V644.601V753.947H689.209V644.601V455.749Z" fill="#7AAD51"/>
<path d="M915.584 503.123L935.092 661.759L956.1 503.123V661.759V753.61H915.584V661.759V503.123Z" fill="#7AAD51"/>
<path d="M972.178 644.639L988.899 713.876L1006.91 644.639V713.876V753.965H972.178V713.876V644.639Z" fill="#7AAD51"/>
<path d="M638.403 644.032L655.124 713.269L673.131 644.032V713.269V753.357H638.403V713.269V644.032Z" fill="#7AAD51"/>
<path d="M997.26 455.412L1020.48 644.264L1045.49 455.412V644.264V753.61H997.26V644.264V455.412Z" fill="#9FCE79"/>
<path d="M722.007 504.072L741.515 662.708L762.523 504.072V662.708V754.559H722.007V662.708V504.072Z" fill="#9FCE79"/>
<path d="M2367.93 551.601C2371.67 551.192 2375.36 552.85 2377.54 555.922L2399.33 586.559C2403.85 592.913 2399.94 601.676 2392.21 602.522L2354.78 606.615C2350.82 607.049 2346.93 605.159 2344.82 601.77L2325.55 570.858C2321.57 564.479 2325.56 556.235 2333.02 555.419L2367.93 551.601Z" fill="#9FCE79"/>
<g style="mix-blend-mode:screen">
<line y1="-3.07206" x2="55.4829" y2="-3.07206" transform="matrix(-0.918042 -0.38886 -0.430388 0.90626 2403.5 599.695)" stroke="#7AAD51" stroke-width="6.14411"/>
</g>
<path d="M2462.39 454.635C2461.3 457.657 2458.54 459.852 2455.26 460.309L2422.04 464.937C2415.59 465.837 2410.51 459.879 2412.67 453.927L2422.77 426.059C2423.92 422.869 2426.93 420.616 2430.41 420.329L2462.92 417.648C2469.19 417.13 2473.87 422.965 2471.78 428.715L2462.39 454.635Z" fill="#9FCE79"/>
<g style="mix-blend-mode:screen">
<line y1="-2.57791" x2="45.0653" y2="-2.57791" transform="matrix(0.79224 -0.635556 -0.658548 -0.732172 2410.84 463.059)" stroke="#7AAD51" stroke-width="5.15582"/>
</g>
<path d="M2300.65 315.085L2316.87 372.529L2405.81 491.672L2383.42 760.019L2425.95 758.966L2430.38 485.484L2300.65 315.085Z" fill="#91C16B"/>
<path d="M2231.62 460.492L2254.84 649.344L2279.85 460.492V649.344V758.69H2231.62V649.344V460.492Z" fill="#7AAD51"/>
<path d="M2458 507.866L2477.5 666.502L2498.51 507.866V666.502V758.353H2458V666.502V507.866Z" fill="#7AAD51"/>
<path d="M2601.41 592.289L2618.13 697.683L2636.14 592.289V697.683V758.707H2601.41V697.683V592.289Z" fill="#BBE19D"/>
<path d="M2514.59 649.382L2531.31 718.619L2549.32 649.382V718.619V758.708H2514.59V718.619V649.382Z" fill="#7AAD51"/>
<path d="M2180.81 648.775L2197.53 718.012L2215.54 648.775V718.012V758.1H2180.81V718.012V648.775Z" fill="#7AAD51"/>
<path d="M2539.67 461.103L2562.89 649.955L2587.9 461.103V649.955V759.302H2539.67V649.955V461.103Z" fill="#9FCE79"/>
<path d="M2264.42 507.866L2283.93 666.502L2304.93 507.866V666.502V758.353H2264.42V666.502V507.866Z" fill="#9FCE79"/>
<path d="M729.604 192.714C743.688 149.367 805.012 149.367 819.096 192.714V192.714C825.395 212.099 843.459 225.224 863.842 225.224V225.224C909.419 225.224 928.369 283.546 891.496 310.336V310.336C875.006 322.316 868.106 343.552 874.405 362.938V362.938C888.489 406.284 838.877 442.329 802.005 415.54V415.54C785.515 403.559 763.185 403.559 746.696 415.54V415.54C709.823 442.329 660.211 406.284 674.295 362.938V362.938C680.594 343.552 673.694 322.316 657.204 310.336V310.336C620.331 283.546 639.281 225.224 684.858 225.224V225.224C705.241 225.224 723.305 212.099 729.604 192.714V192.714Z" fill="#FCF466"/>
<path d="M684.858 235.224C709.573 235.224 731.477 219.309 739.115 195.804C750.205 161.671 798.495 161.671 809.585 195.804C817.223 219.309 839.127 235.224 863.842 235.224C899.732 235.224 914.654 281.15 885.619 302.245C865.624 316.772 857.257 342.522 864.894 366.028C875.985 400.161 836.918 428.545 807.882 407.449C787.888 392.922 760.812 392.922 740.818 407.449C711.782 428.545 672.715 400.161 683.806 366.028C691.443 342.522 683.076 316.772 663.081 302.245C634.046 281.15 648.968 235.224 684.858 235.224Z" stroke="#E6C545" stroke-opacity="0.15" stroke-width="20"/>
<path d="M822.043 301.441C822.043 328.613 800.716 350.641 774.407 350.641C748.098 350.641 726.77 328.613 726.77 301.441C726.77 274.269 748.098 252.241 774.407 252.241C800.716 252.241 822.043 274.269 822.043 301.441Z" fill="#9E510A"/>
<path d="M681.362 373.054C635.848 370.669 619.976 311.435 658.2 286.612V286.612C675.295 275.51 683.297 254.664 678.021 234.976V234.976C666.225 190.952 717.655 157.553 753.075 186.235V186.235C768.916 199.063 791.214 200.231 808.309 189.13V189.13C846.533 164.307 894.19 202.899 877.857 245.449V245.449C870.552 264.478 876.332 286.046 892.172 298.874V298.874C927.592 327.556 905.616 384.807 860.101 382.421V382.421C839.746 381.355 821.019 393.516 813.715 412.545V412.545C797.381 455.095 736.142 451.885 724.346 407.861V407.861C719.07 388.173 701.717 374.121 681.362 373.054V373.054Z" fill="#FCF466"/>
<path d="M738.834 403.979C731.877 378.014 708.992 359.482 682.147 358.075C651.144 356.45 640.332 316.101 666.37 299.192C688.914 284.551 699.467 257.059 692.51 231.094C684.475 201.105 719.508 178.354 743.636 197.893C764.526 214.809 793.934 216.351 816.478 201.71C842.516 184.801 874.979 211.089 863.853 240.074C854.22 265.169 861.842 293.614 882.732 310.531C906.86 330.069 891.89 369.067 860.886 367.442C834.042 366.035 809.344 382.074 799.711 407.169C788.585 436.154 746.87 433.967 738.834 403.979Z" stroke="#E6C545" stroke-opacity="0.15" stroke-width="30"/>
<path d="M681.362 373.054C635.848 370.669 619.976 311.435 658.2 286.612V286.612C675.295 275.51 683.297 254.664 678.021 234.976V234.976C666.225 190.952 717.655 157.553 753.075 186.235V186.235C768.916 199.063 791.214 200.231 808.309 189.13V189.13C846.533 164.307 894.19 202.899 877.857 245.449V245.449C870.552 264.478 876.332 286.046 892.172 298.874V298.874C927.592 327.556 905.616 384.807 860.101 382.421V382.421C839.746 381.355 821.019 393.516 813.715 412.545V412.545C797.381 455.095 736.142 451.885 724.346 407.861V407.861C719.07 388.173 701.717 374.121 681.362 373.054V373.054Z" fill="#FCF466"/>
<path d="M734.005 405.273C727.608 381.4 706.567 364.361 681.886 363.068C646.045 361.189 633.547 314.545 663.647 294.998C684.374 281.538 694.077 256.261 687.68 232.388C678.391 197.721 718.89 171.421 746.782 194.007C765.989 209.56 793.027 210.977 813.755 197.517C843.855 177.97 881.383 208.359 868.521 241.865C859.664 264.939 866.672 291.091 885.879 306.645C913.77 329.231 896.465 374.313 860.624 372.435C835.943 371.142 813.236 385.888 804.379 408.961C791.517 442.467 743.294 439.94 734.005 405.273Z" stroke="#E6C545" stroke-opacity="0.15" stroke-width="20"/>
<path d="M762.459 255.624C788.706 248.591 815.503 263.491 822.312 288.904C829.121 314.316 813.364 340.618 787.118 347.651C760.872 354.684 734.075 339.784 727.265 314.371C720.456 288.959 736.213 262.657 762.459 255.624Z" fill="#9E510A"/>
<path d="M1313.6 192.714C1327.69 149.367 1389.01 149.367 1403.1 192.714V192.714C1409.39 212.099 1427.46 225.224 1447.84 225.224V225.224C1493.42 225.224 1512.37 283.546 1475.5 310.336V310.336C1459.01 322.316 1452.11 343.552 1458.41 362.938V362.938C1472.49 406.284 1422.88 442.329 1386 415.54V415.54C1369.51 403.559 1347.19 403.559 1330.7 415.54V415.54C1293.82 442.329 1244.21 406.284 1258.3 362.938V362.938C1264.59 343.552 1257.69 322.316 1241.2 310.336V310.336C1204.33 283.546 1223.28 225.224 1268.86 225.224V225.224C1289.24 225.224 1307.31 212.099 1313.6 192.714V192.714Z" fill="#FCF466"/>
<path d="M1268.86 235.224C1293.57 235.224 1315.48 219.309 1323.11 195.804C1334.21 161.671 1382.49 161.671 1393.59 195.804C1401.22 219.309 1423.13 235.224 1447.84 235.224C1483.73 235.224 1498.65 281.15 1469.62 302.245C1449.62 316.772 1441.26 342.522 1448.89 366.028C1459.99 400.161 1420.92 428.545 1391.88 407.449C1371.89 392.922 1344.81 392.922 1324.82 407.449C1295.78 428.545 1256.72 400.161 1267.81 366.028C1275.44 342.522 1267.08 316.772 1247.08 302.245C1218.05 281.15 1232.97 235.224 1268.86 235.224Z" stroke="#E6C545" stroke-opacity="0.15" stroke-width="20"/>
<path d="M1406.04 301.441C1406.04 328.613 1384.72 350.641 1358.41 350.641C1332.1 350.641 1310.77 328.613 1310.77 301.441C1310.77 274.269 1332.1 252.241 1358.41 252.241C1384.72 252.241 1406.04 274.269 1406.04 301.441Z" fill="#9E510A"/>
<path d="M1265.36 373.054C1219.85 370.669 1203.98 311.435 1242.2 286.612V286.612C1259.29 275.51 1267.3 254.664 1262.02 234.976V234.976C1250.22 190.952 1301.66 157.553 1337.08 186.235V186.235C1352.92 199.063 1375.21 200.231 1392.31 189.13V189.13C1430.53 164.307 1478.19 202.899 1461.86 245.449V245.449C1454.55 264.478 1460.33 286.046 1476.17 298.874V298.874C1511.59 327.556 1489.62 384.807 1444.1 382.421V382.421C1423.75 381.355 1405.02 393.516 1397.71 412.545V412.545C1381.38 455.095 1320.14 451.885 1308.35 407.861V407.861C1303.07 388.173 1285.72 374.121 1265.36 373.054V373.054Z" fill="#FCF466"/>
<path d="M1322.83 403.979C1315.88 378.014 1292.99 359.482 1266.15 358.075C1235.14 356.45 1224.33 316.101 1250.37 299.192C1272.91 284.551 1283.47 257.059 1276.51 231.094C1268.47 201.105 1303.51 178.354 1327.64 197.893C1348.53 214.809 1377.93 216.351 1400.48 201.71C1426.52 184.801 1458.98 211.089 1447.85 240.074C1438.22 265.169 1445.84 293.614 1466.73 310.531C1490.86 330.069 1475.89 369.067 1444.89 367.442C1418.04 366.035 1393.34 382.074 1383.71 407.169C1372.59 436.154 1330.87 433.967 1322.83 403.979Z" stroke="#E6C545" stroke-opacity="0.15" stroke-width="30"/>
<path d="M1265.36 373.054C1219.85 370.669 1203.98 311.435 1242.2 286.612V286.612C1259.29 275.51 1267.3 254.664 1262.02 234.976V234.976C1250.22 190.952 1301.66 157.553 1337.08 186.235V186.235C1352.92 199.063 1375.21 200.231 1392.31 189.13V189.13C1430.53 164.307 1478.19 202.899 1461.86 245.449V245.449C1454.55 264.478 1460.33 286.046 1476.17 298.874V298.874C1511.59 327.556 1489.62 384.807 1444.1 382.421V382.421C1423.75 381.355 1405.02 393.516 1397.71 412.545V412.545C1381.38 455.095 1320.14 451.885 1308.35 407.861V407.861C1303.07 388.173 1285.72 374.121 1265.36 373.054V373.054Z" fill="#FCF466"/>
<path d="M1318 405.273C1311.61 381.4 1290.57 364.361 1265.89 363.068C1230.05 361.189 1217.55 314.545 1247.65 294.998C1268.37 281.538 1278.08 256.261 1271.68 232.388C1262.39 197.721 1302.89 171.421 1330.78 194.007C1349.99 209.56 1377.03 210.977 1397.76 197.517C1427.85 177.97 1465.38 208.359 1452.52 241.865C1443.66 264.939 1450.67 291.091 1469.88 306.645C1497.77 329.231 1480.46 374.313 1444.62 372.435C1419.94 371.142 1397.24 385.888 1388.38 408.961C1375.52 442.467 1327.29 439.94 1318 405.273Z" stroke="#E6C545" stroke-opacity="0.15" stroke-width="20"/>
<path d="M1346.46 255.624C1372.71 248.591 1399.5 263.491 1406.31 288.904C1413.12 314.316 1397.36 340.618 1371.12 347.651C1344.87 354.684 1318.07 339.784 1311.27 314.371C1304.46 288.959 1320.21 262.657 1346.46 255.624Z" fill="#9E510A"/>
<path d="M2271.6 192.714C2285.69 149.367 2347.01 149.367 2361.1 192.714V192.714C2367.39 212.099 2385.46 225.224 2405.84 225.224V225.224C2451.42 225.224 2470.37 283.546 2433.5 310.336V310.336C2417.01 322.316 2410.11 343.552 2416.41 362.938V362.938C2430.49 406.284 2380.88 442.329 2344 415.54V415.54C2327.51 403.559 2305.19 403.559 2288.7 415.54V415.54C2251.82 442.329 2202.21 406.284 2216.3 362.938V362.938C2222.59 343.552 2215.69 322.316 2199.2 310.336V310.336C2162.33 283.546 2181.28 225.224 2226.86 225.224V225.224C2247.24 225.224 2265.31 212.099 2271.6 192.714V192.714Z" fill="#FCF466"/>
<path d="M2226.86 235.224C2251.57 235.224 2273.48 219.309 2281.11 195.804C2292.21 161.671 2340.49 161.671 2351.59 195.804C2359.22 219.309 2381.13 235.224 2405.84 235.224C2441.73 235.224 2456.65 281.15 2427.62 302.245C2407.62 316.772 2399.26 342.522 2406.89 366.028C2417.99 400.161 2378.92 428.545 2349.88 407.449C2329.89 392.922 2302.81 392.922 2282.82 407.449C2253.78 428.545 2214.72 400.161 2225.81 366.028C2233.44 342.522 2225.08 316.772 2205.08 302.245C2176.05 281.15 2190.97 235.224 2226.86 235.224Z" stroke="#E6C545" stroke-opacity="0.15" stroke-width="20"/>
<path d="M2364.04 301.441C2364.04 328.613 2342.72 350.641 2316.41 350.641C2290.1 350.641 2268.77 328.613 2268.77 301.441C2268.77 274.269 2290.1 252.241 2316.41 252.241C2342.72 252.241 2364.04 274.269 2364.04 301.441Z" fill="#9E510A"/>
<path d="M2223.36 373.054C2177.85 370.669 2161.98 311.435 2200.2 286.612V286.612C2217.29 275.51 2225.3 254.664 2220.02 234.976V234.976C2208.22 190.952 2259.66 157.553 2295.08 186.235V186.235C2310.92 199.063 2333.21 200.231 2350.31 189.13V189.13C2388.53 164.307 2436.19 202.899 2419.86 245.449V245.449C2412.55 264.478 2418.33 286.046 2434.17 298.874V298.874C2469.59 327.556 2447.62 384.807 2402.1 382.421V382.421C2381.75 381.355 2363.02 393.516 2355.71 412.545V412.545C2339.38 455.095 2278.14 451.885 2266.35 407.861V407.861C2261.07 388.173 2243.72 374.121 2223.36 373.054V373.054Z" fill="#FCF466"/>
<path d="M2280.83 403.979C2273.88 378.014 2250.99 359.482 2224.15 358.075C2193.14 356.45 2182.33 316.101 2208.37 299.192C2230.91 284.551 2241.47 257.059 2234.51 231.094C2226.47 201.105 2261.51 178.354 2285.64 197.893C2306.53 214.809 2335.93 216.351 2358.48 201.71C2384.52 184.801 2416.98 211.089 2405.85 240.074C2396.22 265.169 2403.84 293.614 2424.73 310.531C2448.86 330.069 2433.89 369.067 2402.89 367.442C2376.04 366.035 2351.34 382.074 2341.71 407.169C2330.59 436.154 2288.87 433.967 2280.83 403.979Z" stroke="#E6C545" stroke-opacity="0.15" stroke-width="30"/>
<path d="M2223.36 373.054C2177.85 370.669 2161.98 311.435 2200.2 286.612V286.612C2217.29 275.51 2225.3 254.664 2220.02 234.976V234.976C2208.22 190.952 2259.66 157.553 2295.08 186.235V186.235C2310.92 199.063 2333.21 200.231 2350.31 189.13V189.13C2388.53 164.307 2436.19 202.899 2419.86 245.449V245.449C2412.55 264.478 2418.33 286.046 2434.17 298.874V298.874C2469.59 327.556 2447.62 384.807 2402.1 382.421V382.421C2381.75 381.355 2363.02 393.516 2355.71 412.545V412.545C2339.38 455.095 2278.14 451.885 2266.35 407.861V407.861C2261.07 388.173 2243.72 374.121 2223.36 373.054V373.054Z" fill="#FCF466"/>
<path d="M2276 405.273C2269.61 381.4 2248.57 364.361 2223.89 363.068C2188.05 361.189 2175.55 314.545 2205.65 294.998C2226.37 281.538 2236.08 256.261 2229.68 232.388C2220.39 197.721 2260.89 171.421 2288.78 194.007C2307.99 209.56 2335.03 210.977 2355.76 197.517C2385.85 177.97 2423.38 208.359 2410.52 241.865C2401.66 264.939 2408.67 291.091 2427.88 306.645C2455.77 329.231 2438.46 374.313 2402.62 372.435C2377.94 371.142 2355.24 385.888 2346.38 408.961C2333.52 442.467 2285.29 439.94 2276 405.273Z" stroke="#E6C545" stroke-opacity="0.15" stroke-width="20"/>
<path d="M2304.46 255.624C2330.71 248.591 2357.5 263.491 2364.31 288.904C2371.12 314.316 2355.36 340.618 2329.12 347.651C2302.87 354.684 2276.07 339.784 2269.27 314.371C2262.46 288.959 2278.21 262.657 2304.46 255.624Z" fill="#9E510A"/>
<path d="M1777.6 192.714C1791.69 149.367 1853.01 149.367 1867.1 192.714V192.714C1873.39 212.099 1891.46 225.224 1911.84 225.224V225.224C1957.42 225.224 1976.37 283.546 1939.5 310.336V310.336C1923.01 322.316 1916.11 343.552 1922.41 362.938V362.938C1936.49 406.284 1886.88 442.329 1850 415.54V415.54C1833.51 403.559 1811.19 403.559 1794.7 415.54V415.54C1757.82 442.329 1708.21 406.284 1722.3 362.938V362.938C1728.59 343.552 1721.69 322.316 1705.2 310.336V310.336C1668.33 283.546 1687.28 225.224 1732.86 225.224V225.224C1753.24 225.224 1771.31 212.099 1777.6 192.714V192.714Z" fill="#FCF466"/>
<path d="M1732.86 235.224C1757.57 235.224 1779.48 219.309 1787.11 195.804C1798.21 161.671 1846.49 161.671 1857.59 195.804C1865.22 219.309 1887.13 235.224 1911.84 235.224C1947.73 235.224 1962.65 281.15 1933.62 302.245C1913.62 316.772 1905.26 342.522 1912.89 366.028C1923.99 400.161 1884.92 428.545 1855.88 407.449C1835.89 392.922 1808.81 392.922 1788.82 407.449C1759.78 428.545 1720.72 400.161 1731.81 366.028C1739.44 342.522 1731.08 316.772 1711.08 302.245C1682.05 281.15 1696.97 235.224 1732.86 235.224Z" stroke="#E6C545" stroke-opacity="0.15" stroke-width="20"/>
<path d="M1870.04 301.441C1870.04 328.613 1848.72 350.641 1822.41 350.641C1796.1 350.641 1774.77 328.613 1774.77 301.441C1774.77 274.269 1796.1 252.241 1822.41 252.241C1848.72 252.241 1870.04 274.269 1870.04 301.441Z" fill="#9E510A"/>
<path d="M1729.36 373.054C1683.85 370.669 1667.98 311.435 1706.2 286.612V286.612C1723.29 275.51 1731.3 254.664 1726.02 234.976V234.976C1714.22 190.952 1765.66 157.553 1801.08 186.235V186.235C1816.92 199.063 1839.21 200.231 1856.31 189.13V189.13C1894.53 164.307 1942.19 202.899 1925.86 245.449V245.449C1918.55 264.478 1924.33 286.046 1940.17 298.874V298.874C1975.59 327.556 1953.62 384.807 1908.1 382.421V382.421C1887.75 381.355 1869.02 393.516 1861.71 412.545V412.545C1845.38 455.095 1784.14 451.885 1772.35 407.861V407.861C1767.07 388.173 1749.72 374.121 1729.36 373.054V373.054Z" fill="#FCF466"/>
<path d="M1786.83 403.979C1779.88 378.014 1756.99 359.482 1730.15 358.075C1699.14 356.45 1688.33 316.101 1714.37 299.192C1736.91 284.551 1747.47 257.059 1740.51 231.094C1732.47 201.105 1767.51 178.354 1791.64 197.893C1812.53 214.809 1841.93 216.351 1864.48 201.71C1890.52 184.801 1922.98 211.089 1911.85 240.074C1902.22 265.169 1909.84 293.614 1930.73 310.531C1954.86 330.069 1939.89 369.067 1908.89 367.442C1882.04 366.035 1857.34 382.074 1847.71 407.169C1836.59 436.154 1794.87 433.967 1786.83 403.979Z" stroke="#E6C545" stroke-opacity="0.15" stroke-width="30"/>
<path d="M1729.36 373.054C1683.85 370.669 1667.98 311.435 1706.2 286.612V286.612C1723.29 275.51 1731.3 254.664 1726.02 234.976V234.976C1714.22 190.952 1765.66 157.553 1801.08 186.235V186.235C1816.92 199.063 1839.21 200.231 1856.31 189.13V189.13C1894.53 164.307 1942.19 202.899 1925.86 245.449V245.449C1918.55 264.478 1924.33 286.046 1940.17 298.874V298.874C1975.59 327.556 1953.62 384.807 1908.1 382.421V382.421C1887.75 381.355 1869.02 393.516 1861.71 412.545V412.545C1845.38 455.095 1784.14 451.885 1772.35 407.861V407.861C1767.07 388.173 1749.72 374.121 1729.36 373.054V373.054Z" fill="#FCF466"/>
<path d="M1782 405.273C1775.61 381.4 1754.57 364.361 1729.89 363.068C1694.05 361.189 1681.55 314.545 1711.65 294.998C1732.37 281.538 1742.08 256.261 1735.68 232.388C1726.39 197.721 1766.89 171.421 1794.78 194.007C1813.99 209.56 1841.03 210.977 1861.76 197.517C1891.85 177.97 1929.38 208.359 1916.52 241.865C1907.66 264.939 1914.67 291.091 1933.88 306.645C1961.77 329.231 1944.46 374.313 1908.62 372.435C1883.94 371.142 1861.24 385.888 1852.38 408.961C1839.52 442.467 1791.29 439.94 1782 405.273Z" stroke="#E6C545" stroke-opacity="0.15" stroke-width="20"/>
<path d="M1810.46 255.624C1836.71 248.591 1863.5 263.491 1870.31 288.904C1877.12 314.316 1861.36 340.618 1835.12 347.651C1808.87 354.684 1782.07 339.784 1775.27 314.371C1768.46 288.959 1784.21 262.657 1810.46 255.624Z" fill="#9E510A"/>
<path d="M273.604 192.714C287.688 149.367 349.012 149.367 363.096 192.714V192.714C369.395 212.099 387.459 225.224 407.842 225.224V225.224C453.419 225.224 472.369 283.546 435.496 310.336V310.336C419.006 322.316 412.106 343.552 418.405 362.938V362.938C432.489 406.284 382.877 442.329 346.005 415.54V415.54C329.515 403.559 307.185 403.559 290.696 415.54V415.54C253.823 442.329 204.211 406.284 218.295 362.938V362.938C224.594 343.552 217.694 322.316 201.204 310.336V310.336C164.331 283.546 183.281 225.224 228.858 225.224V225.224C249.241 225.224 267.305 212.099 273.604 192.714V192.714Z" fill="#FCF466"/>
<path d="M228.858 235.224C253.573 235.224 275.477 219.309 283.115 195.804C294.205 161.671 342.495 161.671 353.585 195.804C361.223 219.309 383.127 235.224 407.842 235.224C443.732 235.224 458.654 281.15 429.619 302.245C409.624 316.772 401.257 342.522 408.894 366.028C419.985 400.161 380.918 428.545 351.882 407.449C331.888 392.922 304.812 392.922 284.818 407.449C255.782 428.545 216.715 400.161 227.806 366.028C235.443 342.522 227.076 316.772 207.081 302.245C178.046 281.15 192.968 235.224 228.858 235.224Z" stroke="#E6C545" stroke-opacity="0.15" stroke-width="20"/>
<path d="M366.043 301.441C366.043 328.613 344.716 350.641 318.407 350.641C292.098 350.641 270.77 328.613 270.77 301.441C270.77 274.269 292.098 252.241 318.407 252.241C344.716 252.241 366.043 274.269 366.043 301.441Z" fill="#9E510A"/>
<path d="M365.702 301.441C365.702 328.435 344.517 350.299 318.407 350.299C292.297 350.299 271.111 328.435 271.111 301.441C271.111 274.447 292.297 252.583 318.407 252.583C344.517 252.583 365.702 274.447 365.702 301.441Z" stroke="#E6C545" stroke-opacity="0.15" stroke-width="0.682772"/>
<path d="M365.702 301.441C365.702 328.435 344.517 350.299 318.407 350.299C292.297 350.299 271.111 328.435 271.111 301.441C271.111 274.447 292.297 252.583 318.407 252.583C344.517 252.583 365.702 274.447 365.702 301.441Z" stroke="#35699A" stroke-opacity="0.15" stroke-width="0.682772"/>
<path d="M225.362 373.054C179.848 370.669 163.976 311.435 202.2 286.612V286.612C219.295 275.51 227.297 254.664 222.021 234.976V234.976C210.225 190.952 261.655 157.553 297.075 186.235V186.235C312.916 199.063 335.214 200.231 352.309 189.13V189.13C390.533 164.307 438.19 202.899 421.857 245.449V245.449C414.552 264.478 420.332 286.046 436.172 298.874V298.874C471.592 327.556 449.616 384.807 404.101 382.421V382.421C383.746 381.355 365.019 393.516 357.715 412.545V412.545C341.381 455.095 280.142 451.885 268.346 407.861V407.861C263.07 388.173 245.717 374.121 225.362 373.054V373.054Z" fill="#FCF466"/>
<path d="M282.834 403.979C275.877 378.014 252.992 359.482 226.147 358.075C195.144 356.45 184.332 316.101 210.37 299.192C232.914 284.551 243.467 257.059 236.51 231.094C228.475 201.105 263.508 178.354 287.636 197.893C308.526 214.809 337.934 216.351 360.478 201.71C386.516 184.801 418.979 211.089 407.853 240.074C398.22 265.169 405.842 293.614 426.732 310.531C450.86 330.069 435.89 369.067 404.886 367.442C378.042 366.035 353.344 382.074 343.711 407.169C332.585 436.154 290.87 433.967 282.834 403.979Z" stroke="#E6C545" stroke-opacity="0.15" stroke-width="30"/>
<path d="M282.834 403.979C275.877 378.014 252.992 359.482 226.147 358.075C195.144 356.45 184.332 316.101 210.37 299.192C232.914 284.551 243.467 257.059 236.51 231.094C228.475 201.105 263.508 178.354 287.636 197.893C308.526 214.809 337.934 216.351 360.478 201.71C386.516 184.801 418.979 211.089 407.853 240.074C398.22 265.169 405.842 293.614 426.732 310.531C450.86 330.069 435.89 369.067 404.886 367.442C378.042 366.035 353.344 382.074 343.711 407.169C332.585 436.154 290.87 433.967 282.834 403.979Z" stroke="#35699A" stroke-opacity="0.15" stroke-width="30"/>
<path d="M225.362 373.054C179.848 370.669 163.976 311.435 202.2 286.612V286.612C219.295 275.51 227.297 254.664 222.021 234.976V234.976C210.225 190.952 261.655 157.553 297.075 186.235V186.235C312.916 199.063 335.214 200.231 352.309 189.13V189.13C390.533 164.307 438.19 202.899 421.857 245.449V245.449C414.552 264.478 420.332 286.046 436.172 298.874V298.874C471.592 327.556 449.616 384.807 404.101 382.421V382.421C383.746 381.355 365.019 393.516 357.715 412.545V412.545C341.381 455.095 280.142 451.885 268.346 407.861V407.861C263.07 388.173 245.717 374.121 225.362 373.054V373.054Z" fill="#FCF466"/>
<path d="M278.005 405.273C271.608 381.4 250.567 364.361 225.886 363.068C190.045 361.189 177.547 314.545 207.647 294.998C228.374 281.538 238.077 256.261 231.68 232.388C222.391 197.721 262.89 171.421 290.782 194.007C309.989 209.56 337.027 210.977 357.755 197.517C387.855 177.97 425.383 208.359 412.521 241.865C403.664 264.939 410.672 291.091 429.879 306.645C457.77 329.231 440.465 374.313 404.624 372.435C379.943 371.142 357.236 385.888 348.379 408.961C335.517 442.467 287.294 439.94 278.005 405.273Z" stroke="#E6C545" stroke-opacity="0.15" stroke-width="20"/>
<path d="M306.459 255.624C332.706 248.591 359.503 263.491 366.312 288.904C373.121 314.316 357.364 340.618 331.118 347.651C304.872 354.684 278.075 339.784 271.265 314.371C264.456 288.959 280.213 262.657 306.459 255.624Z" fill="#9E510A"/>
<path d="M306.548 255.954C332.622 248.967 359.224 263.771 365.982 288.992C372.74 314.212 357.104 340.335 331.03 347.321C304.955 354.308 278.353 339.503 271.595 314.283C264.837 289.062 280.473 262.94 306.548 255.954Z" stroke="#E6C545" stroke-opacity="0.15" stroke-width="0.682772"/>
<path d="M306.548 255.954C332.622 248.967 359.224 263.771 365.982 288.992C372.74 314.212 357.104 340.335 331.03 347.321C304.955 354.308 278.353 339.503 271.595 314.283C264.837 289.062 280.473 262.94 306.548 255.954Z" stroke="#35699A" stroke-opacity="0.15" stroke-width="0.682772"/>
</svg>
